<?xml version="1.0" encoding="UTF-8"?>
<!DOCTYPE svg PUBLIC "-//W3C//DTD SVG 1.1//EN" "http://www.w3.org/Graphics/SVG/1.1/DTD/svg11.dtd">
<!-- Creator: CorelDRAW 2026 -->
<svg xmlns="http://www.w3.org/2000/svg" xml:space="preserve" width="43.3493mm" height="43.3937mm" version="1.1" style="shape-rendering:geometricPrecision; text-rendering:geometricPrecision; image-rendering:optimizeQuality; fill-rule:evenodd; clip-rule:evenodd"
viewBox="0 0 68.38 68.45"
 xmlns:xlink="http://www.w3.org/1999/xlink"
 xmlns:xodm="http://www.corel.com/coreldraw/odm/2003">
 <defs>
  <style type="text/css">
   <![CDATA[
    .fil0 {fill:black}
    .fil3 {fill:#FFB805}
    .fil1 {fill:url(#id0)}
    .fil2 {fill:url(#id1)}
    .fil4 {fill:url(#id2)}
   ]]>
  </style>
  <linearGradient id="id0" gradientUnits="userSpaceOnUse" x1="18.06" y1="56.66" x2="57.66" y2="56.94">
   <stop offset="0" style="stop-opacity:1; stop-color:#B9DE03"/>
   <stop offset="1" style="stop-opacity:1; stop-color:#65B002"/>
  </linearGradient>
  <linearGradient id="id1" gradientUnits="userSpaceOnUse" x1="50.39" y1="7.45" x2="62.82" y2="43.58">
   <stop offset="0" style="stop-opacity:1; stop-color:#FF503D"/>
   <stop offset="1" style="stop-opacity:1; stop-color:#C42C18"/>
  </linearGradient>
  <linearGradient id="id2" gradientUnits="userSpaceOnUse" x1="15.77" y1="10.93" x2="44.58" y2="10.41">
   <stop offset="0" style="stop-opacity:1; stop-color:#006FD1"/>
   <stop offset="1" style="stop-opacity:1; stop-color:#73D7FF"/>
  </linearGradient>
 </defs>
 <g id="Capa_x0020_1">
  <metadata id="CorelCorpID_0Corel-Layer"/>
  <g id="_2401784267392">
   <path class="fil0" d="M55.68 51.71c0.35,-0.36 1.13,-0.63 1.54,-0.89 1,-0.64 1.99,-1.44 2.34,-2.59 0.17,-0.57 0.19,-1.22 0.14,-1.86 -0.18,0.4 -0.4,0.79 -0.63,1.17 -0.1,0.28 -0.38,0.7 -0.53,0.92 -0.18,0.26 -0.46,0.62 -0.74,0.78l-1.01 0.58 0.91 -2.09 0 -0c0.73,-1.64 -0.14,-3.27 -1.18,-4.54 -0.77,-0.68 -1.5,-1.4 -2.19,-2.16l-0.05 -0.04 -0.01 -0.02c-1.81,-1.99 -3.43,-4.21 -4.79,-6.5 -2.14,-3.6 -4.32,-8.55 -4.09,-12.8 0.05,-0.84 0.18,-1.7 0.33,-2.54 0.15,-0.82 0.33,-1.64 0.53,-2.45 0.25,-1 0.54,-1.99 0.83,-2.97 0.07,-0.22 0.15,-0.46 0.26,-0.66 0.12,-0.23 0.32,-0.47 0.63,-0.39 0.13,0.04 0.23,0.13 0.28,0.25 0.05,0.11 0.15,0.25 0.21,0.35 0.14,0.2 0.3,0.4 0.47,0.59 0.1,0.1 0.21,0.21 0.32,0.29l0.02 0.01 0.02 0.02c2.89,2.79 4.23,7.8 5.2,11.98 0.02,-0.97 -0.08,-1.95 -0.22,-2.89 -0.4,-2.54 -1.23,-4.94 -2.08,-7.36l-0.44 -1.25 1.37 1.06 0.01 0.01c3.38,2.91 6.36,7.63 8.28,12.31 -0.22,-1.08 -0.48,-2.16 -0.82,-3.21 -0.47,-1.46 -1.09,-2.82 -1.9,-4.13 -0.98,-1.6 -2.19,-3.07 -3.49,-4.44 -1.28,-1.35 -2.75,-2.56 -4.27,-3.66 -0.51,-0.37 -1.03,-0.72 -1.55,-1.08 -0.15,-0.1 -0.31,-0.21 -0.46,-0.32 -0.14,-0.1 -0.28,-0.2 -0.32,-0.37l-0.02 -0.1 0.04 -0.1c0.39,-1.07 0.45,-2.27 0.26,-3.37 -0.13,-0.8 -0.46,-1.83 -0.99,-2.47l-0.76 -0.9 1.17 0.29c0.43,0.11 0.87,0.31 1.27,0.5 0.53,0.25 1.05,0.54 1.56,0.83 1.91,1.09 3.69,2.34 5.35,3.75 1.43,1.21 2.75,2.53 3.99,3.92 -0.03,-1.18 -0.66,-2.54 -1.13,-3.45l-0.43 -0.83 0.91 0.29c2.2,0.71 4.56,4.21 5.63,6.08 0.61,1.06 1.17,2.17 1.62,3.31 0.38,0.95 0.73,1.98 0.88,2.99 0.45,3.01 0.55,6.08 0.32,9.13 -0.21,2.77 -0.71,5.55 -1.51,8.23 -0.69,2.33 -1.62,4.63 -2.83,6.76 -0.97,1.7 -2.19,3.41 -3.68,4.73 -0.95,0.85 -2.44,1.74 -3.79,1.94 0.02,0.02 0.03,0.03 0.05,0.05 0.31,0.29 0.61,0.62 0.9,0.94 0.41,0.46 0.82,0.93 1.21,1.4 0.48,0.58 1.78,2.18 1.85,2.91l0.04 0.46 -0.47 -0.04c-0.09,-0.01 -0.17,-0.02 -0.26,-0.04 -0.61,-0.16 -1.05,-0.67 -1.64,-0.9 -0.93,-0.35 -2.02,0.09 -2.84,0.52 -1.39,0.72 -2.6,1.81 -3.81,2.77 -0.56,0.45 -1.11,0.9 -1.67,1.34 -0.7,0.55 -1.41,1.07 -2.14,1.57 -0.13,0.09 -0.27,0.18 -0.41,0.27 -0.6,0.38 -1.21,0.69 -1.87,0.94 -0.56,0.22 -1.15,0.4 -1.73,0.56 0.66,0.13 1.44,0.14 1.91,0.13l0.99 -0.02 -0.72 0.66c-1.72,1.59 -4.47,2.14 -6.75,2.27 -1.34,0.08 -2.7,0.02 -4.02,-0.16 -1.05,-0.14 -2.19,-0.37 -3.16,-0.77 -0.52,-0.21 -1.01,-0.4 -1.54,-0.53 0.29,0.39 0.75,0.73 1.08,0.96l0.45 0.32 -0.47 0.3c-0.44,0.29 -1.14,0.17 -1.62,0.05 -0.67,-0.16 -1.35,-0.43 -1.99,-0.7 -0.54,-0.23 -1.07,-0.49 -1.59,-0.76 -0.37,-0.19 -0.76,-0.4 -1.11,-0.63 -1.65,-1.08 -2.96,-2.5 -4.2,-3.98 -1.41,-1.68 -5.52,-8.66 -5.5,-10.69l0 -0.49 0.49 0.12c0.15,0.04 0.23,0.16 0.33,0.26 0.11,0.13 0.22,0.25 0.34,0.38 0.4,0.43 0.81,0.85 1.25,1.25 1.29,1.17 2.79,2.21 4.43,2.88 3.34,1.16 6.33,0.59 9.75,0.08 1.91,-0.29 3.77,-0.69 5.65,-1.12 0.32,-0.07 0.65,-0.15 0.97,-0.22 1.19,-0.27 2.39,-0.53 3.59,-0.74 1.38,-0.24 2.75,-0.41 4.14,-0.51 0.33,-0.02 0.66,-0.03 0.99,-0.04 0.48,-0.01 0.97,-0.02 1.45,-0.01 0.14,0 0.28,0.01 0.42,0.01 -0.45,-0.1 -0.89,-0.16 -1.15,-0.19 -0.83,-0.1 -1.68,-0.13 -2.52,-0.14 -0.95,-0.01 -1.89,0.02 -2.84,0.06 -1.52,0.08 -3.04,0.21 -4.55,0.38 -1.05,0.12 -2.12,0.25 -3.16,0.44 -1.29,0.24 -2.58,0.5 -3.88,0.69 -1.52,0.23 -3.16,0.41 -4.69,0.29 -0.5,-0.04 -1.02,-0.13 -1.51,-0.23 -0.68,-0.13 -1.36,-0.3 -2.03,-0.49 -1.01,-0.29 -3,-0.93 -3.51,-1.9l-0.32 -0.6 0.71 0.05c0.13,0.01 0.26,0.05 0.39,0.08 0.16,0.04 0.31,0.09 0.47,0.13 0.45,0.12 0.89,0.2 1.36,0.24 1.57,0.12 3.08,-0.31 4.47,-1.01 0.39,-0.2 0.78,-0.42 1.17,-0.63 0.55,-0.3 1.09,-0.61 1.64,-0.9 0.64,-0.34 1.29,-0.69 1.95,-0.99 0.36,-0.17 1.03,-0.47 1.43,-0.46l0.74 0.02 -1.16 1.52c0.31,-0.18 0.63,-0.36 0.94,-0.54 0.43,-0.25 0.85,-0.5 1.28,-0.76 0.31,-0.18 0.61,-0.37 0.92,-0.54 0.91,-0.51 1.77,-0.79 2.81,-0.86 0.56,-0.04 1.12,-0.02 1.68,-0.01 0.64,0.01 1.27,0 1.91,-0.06 0.87,-0.09 1.88,-0.46 2.65,-0.84 0.31,-0.15 0.7,-0.3 1.01,-0.09 0.24,0.17 0.24,0.4 0.39,0.6 0.18,0.24 0.55,0.31 0.83,0.34 0.14,0.02 0.29,0.02 0.43,0.02 0.22,0.01 0.45,0.01 0.67,0.01 0.57,0.01 1.14,0.02 1.71,0.07 0.64,0.05 1.34,0.13 1.96,0.33 0.54,0.18 1.1,0.48 1.26,1.05l0.09 0.3 -2.1 1.02c0.05,0.02 0.09,0.03 0.13,0.04 0.48,0.13 0.98,0.21 1.46,0.32 1.31,0.31 2.42,0.8 3.43,1.55zm-52.25 -16.89l-2.9 0.05c-0.55,0.01 -0.53,-0.77 -0.53,-1.13 -0,-0.67 0.06,-1.37 0.15,-2.03 0.25,-1.97 0.72,-4.01 1.41,-5.88 0.09,-0.24 0.18,-0.48 0.28,-0.72 0.43,-1.04 0.96,-2.07 1.55,-3.03 0.46,-0.74 1,-1.52 1.6,-2.16 0.37,-0.39 0.78,-0.79 1.21,-1.12 0.61,-0.46 1.21,-0.77 1.99,-0.78l14.97 -0.11c0.36,-0 0.89,0.04 0.98,0.46 0.06,0.28 -0.13,0.5 -0.34,0.65 -0.21,0.15 -0.43,0.34 -0.62,0.51 -0.36,0.31 -0.71,0.63 -1.06,0.96 -0.95,0.87 -1.87,1.77 -2.77,2.69 -0.89,0.91 -1.78,1.86 -2.57,2.85 -0.2,0.26 -0.75,0.97 -0.97,1.46l4.2 0.39 -0.04 0.37c-0.03,0.28 -0.38,0.7 -0.55,0.92 -0.37,0.47 -0.76,0.92 -1.14,1.38 -1.06,1.28 -2.1,2.6 -2.99,4 -0.88,1.38 -1.81,3.16 -1.93,4.82l3.59 0.54 -0.19 0.44c-0.61,1.43 -1.1,2.93 -1.48,4.42 -0.42,1.61 -0.74,3.32 -0.83,4.98 -0.11,2 -0.02,4.05 0.24,6.03 0.11,0.82 0.25,1.64 0.44,2.45 0.13,0.57 0.29,1.17 0.52,1.71l0.26 0.62 -0.68 -0.1c-0.39,-0.05 -0.77,-0.47 -1.01,-0.74 -0.41,-0.47 -0.78,-1.02 -1.12,-1.54 -0.95,-1.46 -1.79,-3.03 -2.57,-4.58 -0.69,-1.38 -1.35,-2.8 -1.9,-4.23 -0.22,-0.57 -0.43,-1.15 -0.59,-1.74 -0.07,-0.26 -0.15,-0.56 -0.19,-0.84 -0.73,0.16 -1.44,0.32 -2.16,0.56l-0.35 0.12 -0.13 -0.33c-1.6,-3.94 -2,-8.07 -1.75,-12.28zm4.23 -18.39c0.13,-1.19 2.52,-3.65 3.38,-4.52 0.72,-0.73 1.46,-1.45 2.22,-2.14 0.52,-0.48 1.07,-0.97 1.63,-1.41 1.37,-1.05 2.81,-2.04 4.28,-2.95 1.64,-1.02 3.36,-1.96 5.12,-2.76 1.38,-0.63 2.84,-1.13 4.3,-1.53 1.65,-0.45 3.34,-0.78 5.03,-0.96 5.02,-0.54 10.98,0.2 13.55,4.9 1.95,3.58 0.14,8.41 -2.99,10.9 -1.16,0.92 -2.46,1.62 -3.88,2.08 -2.69,0.88 -5.57,0.86 -8.3,0.29 -1.33,-0.28 -2.65,-0.65 -3.95,-1.02 -1.42,-0.41 -2.84,-0.83 -4.27,-1.22 -1.75,-0.47 -3.53,-0.91 -5.33,-1.17 -1.56,-0.22 -3.23,-0.33 -4.8,-0.07 -0.36,0.06 -0.73,0.17 -1.08,0.28 -0.43,0.14 -0.86,0.29 -1.28,0.45 -0.68,0.26 -1.34,0.53 -2.01,0.81 -0.24,0.1 -0.48,0.2 -0.73,0.29 -0.14,0.05 -0.34,0.13 -0.49,0.15l-0.47 0.04 0.05 -0.45z"/>
   <path class="fil1" d="M30.95 50.8l1.66 -2.19c-0.84,-0.02 -4.83,2.35 -5.99,2.94 -3.89,1.97 -6.3,0.64 -6.9,0.6 0.69,1.32 5.35,2.3 6.73,2.41 2.57,0.21 5.86,-0.49 8.47,-0.97 2.99,-0.55 15,-1.92 16.19,0.45 -0.85,-0.36 -3.98,-0.27 -4.74,-0.21 -3.45,0.26 -5.99,0.85 -8.64,1.46 -1.75,0.4 -3.54,0.81 -5.68,1.13 -3.56,0.53 -6.54,1.1 -9.95,-0.1 -3.79,-1.55 -6.25,-4.75 -6.31,-4.76 -0.01,1.84 3.96,8.71 5.42,10.46 1.14,1.37 2.45,2.81 4.12,3.91 1.01,0.66 4.94,2.64 5.87,2.04 -0.8,-0.56 -1.39,-1.14 -1.5,-1.77 0.9,0.1 1.61,0.38 2.36,0.68 2.97,1.21 10.36,1.64 13.51,-1.27 -1.56,0.02 -2.61,-0.17 -3.13,-0.59 2.71,-0.63 3.84,-1.19 5.01,-1.99 1.52,-1.04 2.44,-1.81 3.79,-2.89 1.12,-0.9 2.45,-2.08 3.87,-2.82 3.32,-1.72 3.8,0.28 4.96,0.38 -0.08,-0.91 -3.02,-4.25 -3.84,-5.02 -2.89,-2.71 -5.85,-2.01 -6.31,-2.91l2.39 -1.16c-0.4,-1.4 -4.74,-1.1 -5.71,-1.21 -1.84,-0.2 -0.8,-1.48 -2.01,-0.89 -0.82,0.4 -1.89,0.79 -2.79,0.88 -2.63,0.26 -3.96,-0.4 -6.24,0.89 -0.87,0.49 -3.9,2.38 -4.6,2.55z"/>
   <path class="fil2" d="M49.01 14.41c-0.58,-0.44 -1.08,-1.26 -1.13,-1.39 -0.05,-0.12 -0.24,0.15 -0.42,0.76 -0.31,1.04 -0.59,2 -0.83,2.96 -0.36,1.45 -0.77,3.43 -0.85,4.92 -0.32,5.83 4.11,13.93 8.82,19.08l0 0 0 0c0.73,0.8 1.47,1.53 2.2,2.17 1.49,1.82 1.91,3.46 1.25,4.94l-0.46 1.05c0.4,-0.23 1.04,-1.3 1.1,-1.52 0.53,-0.84 0.92,-1.72 1.18,-2.65 0.42,2.88 0.56,4.46 -2.45,6.39 -0.37,0.24 -1.3,0.6 -1.51,0.87 1.34,-0.01 3.01,-0.96 4.04,-1.88 5.11,-4.55 9.42,-16.11 7.58,-28.52 -0.58,-3.9 -4.92,-11.13 -7.87,-12.08 0.96,1.83 1.4,3.38 1.07,4.54 -2.87,-3.33 -5.94,-6.05 -9.83,-8.26 -1.09,-0.62 -2.1,-1.13 -2.73,-1.29 0.94,1.12 1.65,3.85 0.8,6.2 0.03,0.14 3.64,2.21 6.51,5.24 6.03,6.36 5.2,8.32 6.6,16.02 -1.2,-6.15 -4.44,-11.88 -9.24,-16l-0.3 -0.23c1.1,3.13 3.03,8.39 2.07,12.68l0 0c-1.01,-4.33 -2.27,-10.78 -5.61,-14.01z"/>
   <path class="fil3" d="M3.85 34.43c-0.37,5.32 0.38,9.27 1.7,12.52 0.91,-0.31 1.47,-0.4 2.64,-0.67 0,2.57 5.69,13.58 7.09,13.77 -0.74,-1.76 -1.46,-6.11 -1.22,-10.34 0.17,-2.94 1.15,-6.72 2.34,-9.52l-3.45 -0.52c0.03,-4.62 6.55,-10.74 6.63,-11.47l-4.25 -0.4c-0,-1.65 7.21,-8.37 8.25,-9.1 0.35,-0.25 0.23,-0.43 -0.42,-0.43l-14.97 0.11c-0.62,0 -1.14,0.23 -1.75,0.7 -0.34,0.26 -0.72,0.61 -1.17,1.07 -0.91,0.96 -2.21,2.94 -3.08,5.07 -1.74,4.25 -2.04,9.26 -1.67,9.26l3.32 -0.06z"/>
   <path class="fil4" d="M8.05 16.46c0.38,-0.04 3.82,-1.68 5.55,-1.98 5.42,-0.91 13.04,2.32 18.51,3.47 4.25,0.9 8.53,0.34 11.84,-2.29 3,-2.39 4.75,-7.03 2.89,-10.43 -3.88,-7.11 -16.14,-5.09 -22.38,-2.25 -3.15,1.43 -6.56,3.54 -9.32,5.66 -1.47,1.13 -6.92,6.22 -7.09,7.81z"/>
  </g>
 </g>
</svg>
