<?xml version="1.0" encoding="UTF-8"?>
<!DOCTYPE svg PUBLIC "-//W3C//DTD SVG 1.1//EN" "http://www.w3.org/Graphics/SVG/1.1/DTD/svg11.dtd">
<!-- Creator: CorelDRAW 2026 -->
<svg xmlns="http://www.w3.org/2000/svg" xml:space="preserve" width="101.6mm" height="47.3217mm" version="1.1" style="shape-rendering:geometricPrecision; text-rendering:geometricPrecision; image-rendering:optimizeQuality; fill-rule:evenodd; clip-rule:evenodd"
viewBox="0 0 420.66 195.93"
 xmlns:xlink="http://www.w3.org/1999/xlink"
 xmlns:xodm="http://www.corel.com/coreldraw/odm/2003">
 <defs>
  <style type="text/css">
   <![CDATA[
    .fil0 {fill:black}
    .fil3 {fill:#FFB805}
    .fil2 {fill:url(#id0)}
    .fil4 {fill:url(#id1)}
    .fil1 {fill:url(#id2)}
    .fil5 {fill:url(#id3)}
   ]]>
  </style>
  <linearGradient id="id0" gradientUnits="userSpaceOnUse" x1="144.24" y1="21.32" x2="179.82" y2="124.74">
   <stop offset="0" style="stop-opacity:1; stop-color:#FF503D"/>
   <stop offset="1" style="stop-opacity:1; stop-color:#C42C18"/>
  </linearGradient>
  <linearGradient id="id1" gradientUnits="userSpaceOnUse" x1="45.15" y1="31.3" x2="127.61" y2="29.8">
   <stop offset="0" style="stop-opacity:1; stop-color:#006FD1"/>
   <stop offset="1" style="stop-opacity:1; stop-color:#73D7FF"/>
  </linearGradient>
  <linearGradient id="id2" gradientUnits="userSpaceOnUse" x1="51.68" y1="162.18" x2="165.06" y2="162.99">
   <stop offset="0" style="stop-opacity:1; stop-color:#B9DE03"/>
   <stop offset="1" style="stop-opacity:1; stop-color:#65B002"/>
  </linearGradient>
  <linearGradient id="id3" gradientUnits="userSpaceOnUse" x1="147.46" y1="43.41" x2="180.63" y2="165.78">
   <stop offset="0" style="stop-opacity:1; stop-color:#FF7700"/>
   <stop offset="0.0901961" style="stop-opacity:1; stop-color:#FAA55A"/>
   <stop offset="0.14902" style="stop-opacity:1; stop-color:white"/>
   <stop offset="0.239216" style="stop-opacity:1; stop-color:#FF9C45"/>
   <stop offset="0.360784" style="stop-opacity:1; stop-color:#FA831A"/>
   <stop offset="0.619608" style="stop-opacity:1; stop-color:#F77300"/>
   <stop offset="0.760784" style="stop-opacity:1; stop-color:white"/>
   <stop offset="0.819608" style="stop-opacity:1; stop-color:#FF7C0A"/>
   <stop offset="1" style="stop-opacity:1; stop-color:#FF7700"/>
  </linearGradient>
 </defs>
 <g id="Capa_x0020_1">
  <metadata id="CorelCorpID_0Corel-Layer"/>
  <g id="_2401757330528">
   <path class="fil0" d="M159.4 148.01c0.99,-1.03 3.24,-1.79 4.42,-2.55 2.85,-1.83 5.7,-4.13 6.69,-7.41 0.49,-1.62 0.53,-3.48 0.39,-5.32 -0.53,1.14 -1.13,2.26 -1.81,3.34 -0.28,0.79 -1.08,2.01 -1.51,2.62 -0.52,0.74 -1.31,1.76 -2.11,2.22l-2.89 1.65 2.61 -5.99 0 -0c2.09,-4.69 -0.4,-9.35 -3.39,-12.99 -2.21,-1.94 -4.29,-4.02 -6.27,-6.17l-0.14 -0.11 -0.03 -0.07c-5.18,-5.68 -9.8,-12.05 -13.71,-18.62 -6.12,-10.29 -12.37,-24.46 -11.71,-36.63 0.13,-2.41 0.5,-4.87 0.94,-7.26 0.43,-2.35 0.94,-4.7 1.52,-7.02 0.71,-2.86 1.53,-5.69 2.38,-8.51 0.19,-0.63 0.42,-1.31 0.73,-1.9 0.34,-0.66 0.91,-1.35 1.79,-1.11 0.38,0.1 0.66,0.37 0.8,0.72 0.14,0.31 0.42,0.72 0.61,1 0.4,0.59 0.85,1.16 1.34,1.67 0.28,0.3 0.59,0.59 0.93,0.84l0.06 0.04 0.05 0.05c8.26,7.99 12.1,22.32 14.89,34.28 0.05,-2.79 -0.22,-5.59 -0.64,-8.28 -1.15,-7.27 -3.53,-14.14 -5.96,-21.06l-1.25 -3.56 3.91 3.04 0.02 0.02c9.68,8.32 18.22,21.83 23.71,35.24 -0.63,-3.1 -1.36,-6.18 -2.34,-9.19 -1.35,-4.17 -3.13,-8.07 -5.43,-11.83 -2.81,-4.59 -6.27,-8.79 -9.99,-12.71 -3.67,-3.87 -7.87,-7.33 -12.22,-10.46 -1.46,-1.06 -2.95,-2.07 -4.45,-3.08 -0.44,-0.3 -0.89,-0.6 -1.33,-0.91 -0.39,-0.28 -0.81,-0.56 -0.91,-1.06l-0.06 -0.29 0.1 -0.28c1.12,-3.07 1.28,-6.49 0.74,-9.66 -0.39,-2.3 -1.3,-5.24 -2.84,-7.06l-2.16 -2.57 3.34 0.83c1.22,0.31 2.5,0.88 3.63,1.42 1.52,0.73 3.01,1.54 4.47,2.37 5.46,3.11 10.56,6.69 15.31,10.74 4.08,3.48 7.86,7.25 11.41,11.22 -0.09,-3.37 -1.88,-7.26 -3.24,-9.88l-1.24 -2.37 2.61 0.84c6.31,2.02 13.04,12.06 16.13,17.41 1.75,3.04 3.34,6.22 4.64,9.46 1.09,2.71 2.08,5.67 2.51,8.56 1.28,8.63 1.58,17.42 0.9,26.14 -0.61,7.94 -2.03,15.88 -4.31,23.56 -1.97,6.66 -4.63,13.26 -8.1,19.35 -2.78,4.87 -6.27,9.75 -10.53,13.54 -2.72,2.43 -6.98,4.98 -10.86,5.56 0.05,0.04 0.1,0.09 0.15,0.14 0.9,0.84 1.76,1.78 2.58,2.69 1.18,1.31 2.34,2.65 3.46,4.01 1.37,1.67 5.1,6.24 5.29,8.34l0.12 1.3 -1.35 -0.11c-0.25,-0.02 -0.49,-0.06 -0.73,-0.13 -1.73,-0.46 -2.99,-1.92 -4.69,-2.57 -2.66,-1.01 -5.77,0.26 -8.14,1.49 -3.97,2.06 -7.44,5.17 -10.9,7.94 -1.6,1.28 -3.18,2.56 -4.79,3.82 -2,1.57 -4.03,3.07 -6.13,4.51 -0.38,0.26 -0.77,0.52 -1.16,0.77 -1.71,1.09 -3.46,1.97 -5.36,2.7 -1.61,0.62 -3.28,1.14 -4.96,1.6 1.89,0.37 4.11,0.39 5.47,0.37l2.82 -0.04 -2.05 1.9c-4.91,4.54 -12.8,6.14 -19.32,6.51 -3.82,0.22 -7.73,0.06 -11.52,-0.45 -2.99,-0.4 -6.28,-1.07 -9.06,-2.2 -1.49,-0.61 -2.9,-1.15 -4.41,-1.51 0.84,1.11 2.15,2.1 3.08,2.75l1.29 0.9 -1.35 0.87c-1.27,0.82 -3.27,0.48 -4.64,0.15 -1.93,-0.47 -3.88,-1.22 -5.69,-2 -1.55,-0.67 -3.07,-1.39 -4.56,-2.17 -1.07,-0.56 -2.18,-1.15 -3.18,-1.81 -4.71,-3.09 -8.46,-7.15 -12.02,-11.4 -4.03,-4.81 -15.79,-24.79 -15.75,-30.61l0.01 -1.41 1.41 0.36c0.43,0.11 0.67,0.45 0.94,0.76 0.32,0.37 0.64,0.73 0.97,1.09 1.14,1.24 2.33,2.44 3.58,3.57 3.7,3.35 7.99,6.32 12.69,8.24 9.56,3.33 18.11,1.69 27.91,0.22 5.46,-0.82 10.79,-1.98 16.17,-3.22 0.92,-0.21 1.85,-0.42 2.77,-0.64 3.41,-0.78 6.83,-1.51 10.28,-2.11 3.94,-0.68 7.88,-1.17 11.86,-1.46 0.94,-0.07 1.89,-0.1 2.83,-0.12 1.39,-0.04 2.77,-0.05 4.16,-0.02 0.4,0.01 0.8,0.02 1.2,0.03 -1.28,-0.29 -2.53,-0.46 -3.3,-0.56 -2.38,-0.28 -4.81,-0.38 -7.22,-0.41 -2.71,-0.03 -5.42,0.05 -8.13,0.18 -4.34,0.22 -8.7,0.59 -13.02,1.08 -2.99,0.34 -6.07,0.72 -9.03,1.27 -3.7,0.68 -7.39,1.42 -11.11,1.99 -4.35,0.66 -9.05,1.18 -13.43,0.82 -1.43,-0.12 -2.91,-0.38 -4.31,-0.66 -1.95,-0.38 -3.89,-0.85 -5.8,-1.39 -2.9,-0.84 -8.6,-2.66 -10.05,-5.43l-0.91 -1.73 2.02 0.15c0.37,0.03 0.75,0.13 1.1,0.23 0.45,0.13 0.89,0.26 1.34,0.38 1.28,0.34 2.56,0.59 3.89,0.69 4.48,0.35 8.82,-0.88 12.79,-2.89 1.12,-0.57 2.23,-1.2 3.34,-1.81 1.56,-0.86 3.13,-1.73 4.7,-2.58 1.83,-0.98 3.68,-1.96 5.57,-2.83 1.04,-0.48 2.95,-1.35 4.1,-1.32l2.12 0.05 -3.31 4.36c0.9,-0.5 1.8,-1.02 2.68,-1.54 1.23,-0.72 2.44,-1.44 3.66,-2.17 0.88,-0.52 1.76,-1.05 2.64,-1.56 2.59,-1.47 5.07,-2.27 8.05,-2.48 1.6,-0.11 3.2,-0.06 4.8,-0.04 1.84,0.03 3.63,-0 5.47,-0.18 2.48,-0.24 5.37,-1.31 7.6,-2.4 0.88,-0.43 2,-0.87 2.89,-0.25 0.69,0.48 0.69,1.13 1.12,1.72 0.5,0.68 1.58,0.89 2.38,0.97 0.4,0.04 0.83,0.05 1.24,0.06 0.64,0.02 1.28,0.02 1.92,0.03 1.64,0.02 3.28,0.06 4.91,0.19 1.84,0.14 3.85,0.38 5.6,0.95 1.54,0.5 3.15,1.38 3.61,3l0.25 0.86 -6 2.92c0.14,0.04 0.27,0.08 0.37,0.1 1.36,0.36 2.8,0.59 4.18,0.92 3.74,0.89 6.92,2.28 9.83,4.43zm-149.56 -48.35l-8.31 0.14c-1.57,0.03 -1.52,-2.2 -1.52,-3.23 -0.01,-1.92 0.18,-3.91 0.43,-5.81 0.71,-5.63 2.06,-11.48 4.03,-16.84 0.25,-0.69 0.52,-1.38 0.8,-2.07 1.22,-2.99 2.73,-5.92 4.45,-8.68 1.31,-2.11 2.86,-4.36 4.59,-6.18 1.07,-1.13 2.22,-2.26 3.48,-3.2 1.75,-1.31 3.48,-2.21 5.71,-2.22l42.84 -0.32c1.03,-0.01 2.54,0.12 2.82,1.31 0.18,0.79 -0.36,1.43 -0.99,1.87 -0.61,0.43 -1.22,0.97 -1.78,1.46 -1.03,0.89 -2.04,1.81 -3.05,2.74 -2.71,2.5 -5.36,5.07 -7.93,7.69 -2.55,2.6 -5.11,5.33 -7.36,8.17 -0.58,0.74 -2.15,2.77 -2.78,4.17l12.02 1.12 -0.11 1.06c-0.08,0.8 -1.08,2 -1.58,2.63 -1.06,1.33 -2.17,2.64 -3.26,3.95 -3.05,3.67 -6.02,7.43 -8.57,11.44 -2.51,3.94 -5.19,9.05 -5.53,13.79l10.28 1.55 -0.54 1.26c-1.74,4.08 -3.14,8.38 -4.24,12.66 -1.19,4.62 -2.12,9.51 -2.39,14.25 -0.32,5.72 -0.06,11.58 0.69,17.25 0.31,2.35 0.71,4.7 1.25,7 0.38,1.62 0.83,3.34 1.48,4.89l0.74 1.76 -1.96 -0.27c-1.12,-0.16 -2.21,-1.34 -2.89,-2.13 -1.17,-1.36 -2.23,-2.91 -3.2,-4.41 -2.71,-4.18 -5.14,-8.67 -7.36,-13.12 -1.97,-3.94 -3.86,-8 -5.44,-12.11 -0.63,-1.63 -1.23,-3.3 -1.7,-4.99 -0.21,-0.75 -0.42,-1.59 -0.54,-2.42 -2.09,0.46 -4.12,0.91 -6.18,1.6l-1.01 0.34 -0.39 -0.95c-4.58,-11.26 -5.73,-23.09 -5.01,-35.15zm12.09 -52.65c0.37,-3.41 7.22,-10.44 9.68,-12.95 2.06,-2.1 4.19,-4.14 6.36,-6.13 1.49,-1.36 3.06,-2.79 4.67,-4.02 3.92,-3.02 8.04,-5.83 12.26,-8.44 4.7,-2.91 9.61,-5.61 14.65,-7.9 3.94,-1.79 8.12,-3.23 12.3,-4.38 4.71,-1.29 9.56,-2.23 14.41,-2.75 14.37,-1.53 31.44,0.56 38.8,14.03 5.59,10.24 0.39,24.08 -8.57,31.2 -3.31,2.63 -7.05,4.63 -11.1,5.96 -7.69,2.52 -15.95,2.47 -23.75,0.83 -3.81,-0.8 -7.58,-1.85 -11.31,-2.91 -4.07,-1.16 -8.13,-2.37 -12.22,-3.48 -5,-1.36 -10.11,-2.61 -15.27,-3.35 -4.46,-0.64 -9.25,-0.94 -13.74,-0.19 -1.03,0.17 -2.08,0.48 -3.08,0.79 -1.23,0.39 -2.45,0.83 -3.66,1.29 -1.93,0.74 -3.84,1.53 -5.75,2.32 -0.69,0.29 -1.39,0.57 -2.09,0.84 -0.4,0.15 -0.98,0.38 -1.4,0.42l-1.35 0.13 0.14 -1.3z"/>
   <path class="fil1" d="M88.59 145.43l4.76 -6.28c-2.42,-0.05 -13.82,6.73 -17.15,8.42 -11.14,5.63 -18.05,1.84 -19.74,1.71 1.99,3.79 15.31,6.58 19.26,6.9 7.36,0.6 16.78,-1.41 24.23,-2.79 8.56,-1.58 42.95,-5.49 46.35,1.29 -2.44,-1.04 -11.4,-0.77 -13.58,-0.61 -9.88,0.73 -17.15,2.43 -24.74,4.18 -5,1.15 -10.14,2.32 -16.25,3.23 -10.18,1.53 -18.71,3.14 -28.49,-0.28 -10.85,-4.43 -17.9,-13.58 -18.05,-13.62 -0.04,5.27 11.32,24.94 15.5,29.93 3.27,3.91 7.01,8.05 11.78,11.19 2.89,1.9 14.15,7.55 16.82,5.83 -2.29,-1.6 -3.99,-3.27 -4.3,-5.07 2.57,0.3 4.61,1.07 6.75,1.95 8.51,3.48 29.66,4.7 38.67,-3.63 -4.46,0.07 -7.47,-0.48 -8.97,-1.69 7.75,-1.8 10.98,-3.41 14.34,-5.71 4.34,-2.98 6.99,-5.2 10.86,-8.28 3.22,-2.57 7.02,-5.95 11.08,-8.06 9.5,-4.93 10.88,0.8 14.2,1.08 -0.23,-2.6 -8.65,-12.18 -11,-14.38 -8.29,-7.77 -16.75,-5.75 -18.07,-8.34l6.84 -3.32c-1.14,-4 -13.57,-3.15 -16.33,-3.45 -5.26,-0.57 -2.3,-4.24 -5.75,-2.55 -2.33,1.14 -5.4,2.26 -8,2.51 -7.52,0.74 -11.35,-1.14 -17.86,2.55 -2.49,1.41 -11.17,6.81 -13.17,7.29z"/>
   <path class="fil2" d="M140.3 41.26c-1.67,-1.25 -3.09,-3.6 -3.23,-3.97 -0.14,-0.35 -0.68,0.44 -1.19,2.17 -0.89,2.98 -1.68,5.72 -2.37,8.46 -1.03,4.15 -2.2,9.83 -2.43,14.08 -0.91,16.7 11.77,39.87 25.25,54.61l0 0.01 0.01 0.01c2.1,2.29 4.21,4.37 6.29,6.2 4.28,5.2 5.47,9.91 3.59,14.15l-1.31 3c1.16,-0.66 2.99,-3.72 3.15,-4.34 1.51,-2.4 2.64,-4.93 3.39,-7.58 1.21,8.25 1.59,12.77 -7.02,18.31 -1.05,0.68 -3.74,1.71 -4.32,2.5 3.84,-0.03 8.61,-2.74 11.57,-5.38 14.63,-13.04 26.96,-46.11 21.68,-81.63 -1.66,-11.16 -14.07,-31.86 -22.54,-34.57 2.74,5.23 4,9.69 3.06,13 -8.21,-9.52 -16.99,-17.3 -28.12,-23.65 -3.11,-1.77 -6.02,-3.23 -7.82,-3.68 2.7,3.21 4.73,11.03 2.28,17.75 0.08,0.41 10.42,6.33 18.63,15 17.26,18.21 14.88,23.82 18.9,45.86 -3.43,-17.61 -12.72,-34.01 -26.44,-45.81l-0.86 -0.67c3.15,8.96 8.69,24.01 5.91,36.3l-0 0c-2.9,-12.4 -6.49,-30.85 -16.07,-40.11z"/>
   <path class="fil3" d="M11.03 98.55c-1.06,15.22 1.08,26.54 4.86,35.84 2.62,-0.87 4.2,-1.15 7.55,-1.91 0,7.35 16.29,38.87 20.29,39.43 -2.11,-5.05 -4.18,-17.5 -3.5,-29.6 0.48,-8.43 3.29,-19.24 6.71,-27.26l-9.86 -1.49c0.08,-13.24 18.76,-30.75 18.97,-32.82l-12.18 -1.14c-0.01,-4.73 20.64,-23.95 23.62,-26.06 1,-0.71 0.67,-1.25 -1.19,-1.23l-42.84 0.32c-1.79,0.01 -3.25,0.67 -5.02,1.99 -0.98,0.74 -2.06,1.73 -3.34,3.07 -2.62,2.75 -6.32,8.4 -8.82,14.52 -4.97,12.15 -5.84,26.51 -4.77,26.49l9.5 -0.16z"/>
   <path class="fil4" d="M23.05 47.1c1.09,-0.1 10.92,-4.82 15.9,-5.65 15.52,-2.62 37.32,6.63 52.97,9.94 12.17,2.57 24.42,0.96 33.88,-6.56 8.6,-6.84 13.59,-20.13 8.28,-29.85 -11.12,-20.35 -46.19,-14.57 -64.05,-6.44 -9.01,4.1 -18.77,10.13 -26.69,16.21 -4.22,3.24 -19.8,17.81 -20.29,22.35z"/>
   <path class="fil0" d="M204.83 96.9l-10.71 0.09 -0.2 -22.97 -13.34 0.12 7.47 -10.29 33.21 -0.29 -7.52 10.29 -8.38 0.07 0.19 21.93 19.37 -28.51c0.74,-1.14 1.73,-2.06 2.87,-2.8 1.23,-0.8 2.62,-1.34 4.1,-1.35 1.49,-0.01 2.89,0.5 4.14,1.29 1.14,0.72 2.11,1.63 2.87,2.74l16.74 24.3 -0.25 -28.26 11.39 -0.1 0.2 23.01 24.18 -0.21 -7.53 10.25 -24.62 0.22 0.13 0.19 -39.85 0.35 2.63 -3.87 -2.66 3.87 -14.56 0.13 0.13 -0.19zm21.76 -10.61l10.61 -0.09 -5.35 -7.57 -5.26 7.66zm-60.75 39.96l-5.4 7.4 -27.9 0.25 -0.29 -33.03 35.43 -0.31 -7.44 10.25 -16.51 0.15 0.01 1.07 22.61 -0.2 -7.45 10.21 -15.07 0.13 0.01 1.5 21.98 -0.19 -0.07 -7.79 26.65 -0.24c1.11,-0.01 2.37,-0.15 3.38,-0.65 0.78,-0.39 1.31,-0.91 1.3,-1.81 -0,-0.4 -0.08,-0.8 -0.29,-1.14 -0.77,-1.22 -3.18,-1.33 -4.43,-1.32l-27.74 0.25 7.55 -10.25 19.24 -0.17c4.08,-0.04 8.36,0.6 11.87,2.8 3.58,2.24 5.4,5.55 5.44,9.77 0.02,2.41 -0.69,4.61 -2.11,6.55 -1.14,1.57 -2.6,2.78 -4.27,3.7l9.95 8.46 -0.14 -16.37 26.65 -0.24c1.11,-0.01 2.37,-0.15 3.38,-0.65 0.78,-0.39 1.31,-0.91 1.3,-1.81 -0,-0.4 -0.08,-0.8 -0.29,-1.14 -0.77,-1.22 -3.18,-1.33 -4.43,-1.32l-27.74 0.25 7.55 -10.25 19.24 -0.17c4.08,-0.04 8.36,0.6 11.87,2.81 3.58,2.24 5.4,5.55 5.44,9.77 0.02,2.41 -0.69,4.61 -2.11,6.55 -1.14,1.57 -2.6,2.78 -4.27,3.7l11.76 10 -16.69 0.15 -9.03 -7.66 -11.16 0.1 0.07 7.74 -26.28 0.23 -9.03 -7.67 -11.16 0.1 0.07 7.74 -11.39 0.1 -0.07 -7.35zm138.55 -16.72c0.77,1.84 1.16,3.86 1.18,6.04 0.04,4.82 -1.75,8.88 -5.34,12.1 -3.79,3.4 -8.43,4.82 -13.48,4.86l-8.92 0.08c-5.06,0.04 -9.75,-1.29 -13.61,-4.62 -3.65,-3.15 -5.51,-7.18 -5.55,-12 -0.04,-4.75 1.69,-8.76 5.32,-11.84 3.84,-3.26 8.57,-4.52 13.54,-4.57l8.92 -0.08c4.97,-0.04 9.71,1.13 13.6,4.33 1.95,1.6 3.37,3.47 4.28,5.59l7.2 -10.14 25.79 -0.23c1.53,-0.01 3,0.31 4.32,1.11 1.42,0.86 2.3,2.13 2.32,3.82 0.02,1.78 -0.99,3.24 -2.26,4.39l-15.48 13.68 13.97 -0.12 5.14 7.29 -0.13 -15.12 26.65 -0.24c0.91,-0.01 1.78,-0.22 2.51,-0.78 0.59,-0.46 0.86,-1.01 0.85,-1.75 -0.01,-0.73 -0.27,-1.26 -0.86,-1.68 -0.75,-0.53 -1.64,-0.72 -2.55,-0.71l-27.76 0.25 7.65 -10.25 19.16 -0.17c3.93,-0.03 7.71,0.85 10.91,3.2 1.39,1.02 2.5,2.21 3.3,3.56l-0.06 -6.89 35.43 -0.31 -7.44 10.25 -16.51 0.15 0.01 1.07 22.61 -0.2 -7.45 10.21 -15.07 0.13 0.01 1.5 24.05 -0.21 -7.45 10.21 -27.9 0.25 -0.13 -14.63c-0.78,1.36 -1.86,2.57 -3.24,3.62 -3.17,2.42 -6.96,3.36 -10.9,3.4l-14.4 0.13 0.07 7.74 -44.04 0.39c-1.42,0.01 -2.9,-0.19 -4.18,-0.86 -1.46,-0.76 -2.36,-2 -2.38,-3.68 -0.02,-1.93 1.17,-3.52 2.55,-4.74l15.47 -13.67 -19.76 0.18zm-214.41 -11.62l-0.29 -33.19 11.39 -0.1 0.29 33.19 -11.39 0.1zm40.04 19.63c1.39,1.55 2.25,3.39 2.27,5.55 0.02,1.8 -0.57,3.45 -1.6,4.92 -1.53,2.2 -3.74,3.66 -6.23,4.6 -2.51,0.95 -5.17,1.35 -7.85,1.38l-25.79 0.23 -0.19 -21.39 26.69 -0.24c0.6,-0 1.2,-0.09 1.76,-0.29 0.17,-0.07 0.64,-0.26 0.63,-0.48 -0,-0.2 -0.49,-0.37 -0.63,-0.42 -0.57,-0.19 -1.18,-0.27 -1.78,-0.27l-27.83 0.25 7.81 -10.25 19.03 -0.17c2.69,-0.02 5.39,0.34 7.92,1.29 2.49,0.93 4.7,2.38 6.26,4.58 1.06,1.49 1.66,3.15 1.68,4.97 0.02,2.2 -0.8,4.11 -2.17,5.74zm24.32 -43.08c-0,0.02 -0,0.05 -0,0.07 0,0.02 0,0.05 0,0.07 0.13,0.07 0.48,0.08 0.6,0.08l15.16 -0.13c3.51,-0.03 6.9,0.76 9.74,2.89 2.77,2.09 4.23,4.92 4.26,8.4 0.07,7.57 -7.02,11.3 -13.8,11.36l-29.44 0.26 7.48 -10.25 21.86 -0.19c0.75,-0.01 1.48,-0.14 2.16,-0.44 0.28,-0.13 0.83,-0.39 0.83,-0.77 -0,-0.41 -0.49,-0.62 -0.8,-0.74 -0.69,-0.27 -1.47,-0.34 -2.2,-0.33l-15.16 0.13c-3.24,0.03 -6.4,-0.66 -9.08,-2.53 -2.67,-1.86 -4.13,-4.43 -4.16,-7.69 -0.03,-3.28 1.38,-5.89 4.03,-7.81 2.65,-1.92 5.8,-2.66 9.04,-2.69l29.18 -0.26 -7.47 10.29 -21.62 0.19c-0.12,0 -0.47,0.02 -0.6,0.09zm-39.27 7.5l0.14 15.73 -11.44 0.1 -0.25 -28.1c-0.01,-1.35 0.39,-2.59 1.32,-3.6 0.99,-1.07 2.34,-1.48 3.78,-1.5 2.05,-0.02 3.86,0.75 5.4,2.07l15.75 13.47 -0.14 -15.77 11.44 -0.1 0.25 28.1c0.03,3.13 -1.42,5.32 -4.72,5.35 -2.19,0.02 -4.13,-0.87 -5.78,-2.28l-15.75 -13.47zm171.48 27.72l-8.92 0.08c-2.06,0.02 -3.99,0.53 -5.56,1.9 -1.4,1.23 -2.06,2.74 -2.05,4.6 0.02,1.83 0.68,3.31 2.11,4.47 1.61,1.3 3.57,1.75 5.61,1.73l8.92 -0.08c2.04,-0.02 3.99,-0.5 5.58,-1.83 1.41,-1.18 2.05,-2.67 2.03,-4.5 -0.02,-1.87 -0.71,-3.37 -2.14,-4.56 -1.6,-1.33 -3.52,-1.83 -5.58,-1.81zm-184.44 13.23l0.01 1.07 15.31 -0.13c0.83,-0.01 1.66,-0.1 2.47,-0.29 0.16,-0.04 0.55,-0.15 0.83,-0.27 -0.28,-0.12 -0.68,-0.22 -0.84,-0.26 -0.81,-0.18 -1.64,-0.26 -2.47,-0.25l-15.31 0.13z"/>
   <path class="fil0" d="M203.24 95.52l-10.71 0.09 -0.2 -22.97 -13.34 0.12 7.47 -10.29 33.21 -0.29 -7.52 10.29 -8.38 0.07 0.19 21.93 19.37 -28.51c0.74,-1.14 1.73,-2.06 2.87,-2.8 1.23,-0.8 2.62,-1.34 4.1,-1.35 1.49,-0.01 2.89,0.5 4.13,1.29 1.14,0.72 2.11,1.63 2.87,2.74l16.74 24.3 -0.25 -28.26 11.39 -0.1 0.2 23.01 24.18 -0.21 -7.53 10.25 -24.62 0.22 0.13 0.19 -39.85 0.35 2.63 -3.87 -2.66 3.87 -14.56 0.13 0.13 -0.19zm21.75 -10.61l10.61 -0.09 -5.35 -7.57 -5.26 7.66zm-60.75 39.96l-5.4 7.4 -27.9 0.25 -0.29 -33.03 35.43 -0.31 -7.44 10.25 -16.51 0.15 0.01 1.07 22.61 -0.2 -7.45 10.21 -15.07 0.13 0.01 1.5 21.98 -0.19 -0.07 -7.79 26.65 -0.24c1.11,-0.01 2.37,-0.15 3.38,-0.65 0.78,-0.39 1.31,-0.91 1.3,-1.81 -0,-0.4 -0.08,-0.8 -0.29,-1.14 -0.77,-1.22 -3.18,-1.33 -4.43,-1.32l-27.74 0.25 7.55 -10.25 19.24 -0.17c4.08,-0.04 8.36,0.6 11.87,2.81 3.58,2.24 5.4,5.55 5.44,9.77 0.02,2.41 -0.69,4.61 -2.11,6.55 -1.14,1.57 -2.6,2.78 -4.27,3.7l9.95 8.46 -0.14 -16.37 26.65 -0.24c1.11,-0.01 2.37,-0.15 3.38,-0.65 0.78,-0.39 1.31,-0.91 1.3,-1.81 -0,-0.4 -0.08,-0.8 -0.29,-1.14 -0.77,-1.22 -3.18,-1.33 -4.43,-1.32l-27.74 0.25 7.55 -10.25 19.24 -0.17c4.08,-0.04 8.36,0.6 11.87,2.8 3.58,2.24 5.4,5.55 5.44,9.77 0.02,2.41 -0.69,4.61 -2.11,6.55 -1.14,1.57 -2.6,2.78 -4.27,3.7l11.76 10 -16.69 0.15 -9.03 -7.67 -11.16 0.1 0.07 7.74 -26.28 0.23 -9.03 -7.66 -11.16 0.1 0.07 7.74 -11.39 0.1 -0.07 -7.35zm138.55 -16.72c0.77,1.84 1.16,3.86 1.18,6.04 0.04,4.82 -1.75,8.88 -5.34,12.1 -3.79,3.4 -8.43,4.82 -13.48,4.86l-8.92 0.08c-5.06,0.04 -9.75,-1.29 -13.61,-4.62 -3.65,-3.15 -5.51,-7.18 -5.55,-12 -0.04,-4.75 1.69,-8.76 5.32,-11.84 3.84,-3.26 8.57,-4.52 13.54,-4.57l8.92 -0.08c4.97,-0.04 9.71,1.13 13.6,4.33 1.95,1.6 3.37,3.47 4.28,5.59l7.21 -10.14 25.79 -0.23c1.53,-0.01 3,0.31 4.32,1.11 1.42,0.86 2.3,2.13 2.32,3.82 0.02,1.78 -0.99,3.24 -2.26,4.39l-15.48 13.68 13.97 -0.12 5.14 7.29 -0.13 -15.12 26.65 -0.24c0.91,-0.01 1.79,-0.22 2.51,-0.78 0.59,-0.46 0.86,-1.01 0.85,-1.75 -0.01,-0.73 -0.27,-1.26 -0.86,-1.68 -0.75,-0.54 -1.64,-0.72 -2.55,-0.71l-27.76 0.25 7.65 -10.25 19.16 -0.17c3.93,-0.03 7.71,0.85 10.91,3.2 1.39,1.02 2.5,2.21 3.3,3.56l-0.06 -6.89 35.43 -0.31 -7.44 10.25 -16.51 0.15 0.01 1.07 22.61 -0.2 -7.45 10.21 -15.07 0.13 0.01 1.5 24.05 -0.21 -7.45 10.21 -27.9 0.25 -0.13 -14.63c-0.78,1.36 -1.86,2.57 -3.24,3.62 -3.17,2.42 -6.96,3.36 -10.9,3.39l-14.4 0.13 0.07 7.74 -44.04 0.39c-1.42,0.01 -2.9,-0.19 -4.18,-0.86 -1.46,-0.76 -2.36,-2 -2.38,-3.68 -0.02,-1.93 1.17,-3.52 2.55,-4.74l15.47 -13.67 -19.76 0.17zm-214.41 -11.62l-0.29 -33.19 11.39 -0.1 0.29 33.19 -11.39 0.1zm40.04 19.63c1.39,1.55 2.25,3.39 2.27,5.55 0.02,1.8 -0.57,3.45 -1.6,4.92 -1.53,2.2 -3.74,3.66 -6.23,4.6 -2.51,0.95 -5.17,1.35 -7.85,1.38l-25.79 0.23 -0.19 -21.4 26.69 -0.24c0.6,-0.01 1.2,-0.09 1.76,-0.29 0.17,-0.07 0.64,-0.26 0.63,-0.48 -0,-0.2 -0.49,-0.37 -0.63,-0.42 -0.57,-0.19 -1.18,-0.27 -1.78,-0.27l-27.83 0.25 7.81 -10.25 19.03 -0.17c2.69,-0.02 5.39,0.34 7.92,1.29 2.49,0.93 4.7,2.38 6.26,4.58 1.06,1.49 1.66,3.15 1.68,4.97 0.02,2.2 -0.8,4.11 -2.17,5.74zm24.32 -43.08c-0,0.02 -0,0.05 -0,0.07 0,0.02 0,0.05 0,0.07 0.13,0.07 0.48,0.08 0.6,0.08l15.16 -0.13c3.51,-0.03 6.9,0.76 9.74,2.89 2.77,2.09 4.23,4.92 4.26,8.4 0.07,7.57 -7.02,11.3 -13.8,11.36l-29.44 0.26 7.48 -10.25 21.86 -0.19c0.75,-0.01 1.48,-0.14 2.16,-0.44 0.28,-0.13 0.83,-0.39 0.83,-0.77 -0,-0.41 -0.49,-0.62 -0.8,-0.74 -0.69,-0.27 -1.47,-0.34 -2.2,-0.33l-15.16 0.13c-3.24,0.03 -6.4,-0.66 -9.08,-2.53 -2.67,-1.86 -4.13,-4.43 -4.16,-7.69 -0.03,-3.28 1.38,-5.89 4.03,-7.81 2.65,-1.92 5.8,-2.66 9.04,-2.69l29.18 -0.26 -7.47 10.29 -21.62 0.19c-0.12,0 -0.46,0.02 -0.6,0.09zm-39.27 7.5l0.14 15.73 -11.44 0.1 -0.25 -28.1c-0.01,-1.35 0.39,-2.59 1.32,-3.6 0.99,-1.07 2.34,-1.48 3.78,-1.49 2.05,-0.02 3.86,0.75 5.4,2.07l15.75 13.47 -0.14 -15.77 11.44 -0.1 0.25 28.1c0.03,3.13 -1.42,5.32 -4.72,5.35 -2.19,0.02 -4.13,-0.87 -5.78,-2.28l-15.75 -13.47zm171.48 27.72l-8.92 0.08c-2.06,0.02 -3.99,0.53 -5.56,1.9 -1.4,1.23 -2.06,2.74 -2.05,4.6 0.02,1.83 0.68,3.31 2.11,4.47 1.61,1.3 3.57,1.75 5.61,1.73l8.92 -0.08c2.04,-0.02 3.99,-0.5 5.58,-1.83 1.41,-1.18 2.05,-2.67 2.03,-4.5 -0.02,-1.87 -0.71,-3.37 -2.14,-4.56 -1.6,-1.33 -3.52,-1.83 -5.58,-1.81zm-184.44 13.23l0.01 1.07 15.31 -0.14c0.83,-0.01 1.66,-0.1 2.47,-0.29 0.16,-0.04 0.55,-0.15 0.83,-0.27 -0.28,-0.12 -0.68,-0.22 -0.84,-0.26 -0.81,-0.18 -1.64,-0.26 -2.47,-0.25l-15.31 0.14z"/>
   <path class="fil5" d="M89.47 95.43l9.21 -0.08 -0.27 -31.01 -9.21 0.08 0.27 31.01zm327.45 25.51l-5.85 8.01 -26.26 0.23 -0.27 -30.85 32.18 -0.28 -5.85 8.05 -17.05 0.15 0.03 3.25 21.53 -0.19 -5.85 8.01 -15.62 0.14 0.03 3.68 22.97 -0.2zm-32.98 -11.05c0.03,3.48 -1.38,6.32 -4.24,8.51 -2.75,2.08 -6.16,3.14 -10.25,3.17l-15.49 0.14 0.07 7.74 -9.17 0.08 -0.14 -15.75 25.56 -0.23c1.26,-0.01 2.32,-0.35 3.17,-1.01 0.86,-0.66 1.28,-1.54 1.27,-2.62 -0.01,-1.08 -0.45,-1.94 -1.32,-2.56 -0.87,-0.62 -1.93,-0.92 -3.19,-0.91l-25.56 0.23 6.01 -8.06 18.62 -0.16c4.05,-0.04 7.47,0.96 10.26,2.99 2.9,2.14 4.36,4.95 4.39,8.43zm-40.31 19.66l-32.55 0.29c-1.48,0.01 -2.7,-0.23 -3.66,-0.74 -1.18,-0.62 -1.78,-1.52 -1.79,-2.72 -0.01,-1.31 0.72,-2.62 2.18,-3.91l17.66 -15.6 -20.67 0.18 5.72 -8.05 25.23 -0.22c1.45,-0.01 2.7,0.3 3.75,0.95 1.18,0.7 1.78,1.67 1.79,2.89 0.01,1.23 -0.62,2.42 -1.9,3.57l-17.66 15.6 16.32 -0.14 5.58 7.91zm-58.68 -22.33l-8.92 0.08c-2.55,0.02 -4.64,0.75 -6.27,2.17 -1.63,1.43 -2.44,3.24 -2.42,5.44 0.02,2.2 0.86,3.97 2.51,5.31 1.65,1.34 3.76,2 6.31,1.98l8.92 -0.08c2.55,-0.02 4.64,-0.72 6.27,-2.09 1.63,-1.37 2.44,-3.15 2.42,-5.35 -0.02,-2.2 -0.86,-3.99 -2.54,-5.39 -1.67,-1.4 -3.76,-2.08 -6.29,-2.06zm17.94 6.99c0.04,4.51 -1.62,8.27 -4.98,11.28 -3.36,3.01 -7.61,4.54 -12.76,4.58l-8.92 0.08c-5.18,0.05 -9.47,-1.41 -12.88,-4.36 -3.41,-2.95 -5.13,-6.68 -5.17,-11.19 -0.04,-4.51 1.6,-8.17 4.94,-11 3.33,-2.82 7.61,-4.26 12.85,-4.31l8.92 -0.08c5.23,-0.05 9.53,1.31 12.9,4.08 3.37,2.77 5.07,6.4 5.11,10.91zm-46.92 16.12l-13.36 0.12 -9.03 -7.67 -12.66 0.11 0.07 7.74 -9.21 0.08 -0.14 -15.75 25.56 -0.23c1.56,-0.01 2.85,-0.27 3.86,-0.76 1.28,-0.64 1.92,-1.57 1.91,-2.8 -0.02,-2.4 -1.96,-3.58 -5.83,-3.54l-25.56 0.23 5.93 -8.05 18.7 -0.17c4.63,-0.04 8.39,0.84 11.28,2.64 3.25,2.05 4.9,5.01 4.93,8.86 0.02,2.17 -0.62,4.13 -1.9,5.9 -1.29,1.77 -3.08,3.13 -5.37,4.09l10.81 9.19zm-46.4 0.41l-13.35 0.12 -9.03 -7.66 -12.66 0.11 0.07 7.74 -9.2 0.08 -0.14 -15.75 25.56 -0.23c1.56,-0.01 2.85,-0.27 3.86,-0.76 1.28,-0.64 1.92,-1.57 1.91,-2.8 -0.02,-2.4 -1.96,-3.58 -5.83,-3.54l-25.56 0.23 5.93 -8.05 18.7 -0.17c4.63,-0.04 8.39,0.84 11.29,2.64 3.25,2.05 4.89,5.01 4.93,8.86 0.02,2.17 -0.61,4.14 -1.9,5.9 -1.29,1.77 -3.07,3.13 -5.37,4.09l10.81 9.19zm-45.44 -7.56l-5.85 8.01 -26.26 0.23 -0.27 -30.85 32.18 -0.28 -5.85 8.05 -17.05 0.15 0.03 3.25 21.53 -0.19 -5.85 8.01 -15.62 0.14 0.03 3.68 22.97 -0.2zm-48.32 -2.87l-16.4 0.14 0.03 3.25 16.4 -0.14c0.96,-0.01 1.86,-0.12 2.71,-0.32 1.26,-0.3 1.88,-0.75 1.88,-1.34 -0,-0.6 -0.64,-1.04 -1.9,-1.31 -0.85,-0.19 -1.76,-0.28 -2.72,-0.28zm11.1 -4.12c1.77,1.64 2.66,3.49 2.68,5.54 0.01,1.51 -0.45,2.94 -1.4,4.29 -1.27,1.84 -3.18,3.24 -5.72,4.2 -2.24,0.85 -4.73,1.28 -7.47,1.31l-24.7 0.22 -0.17 -19.21 25.6 -0.23c0.77,-0.01 1.48,-0.13 2.13,-0.36 0.9,-0.35 1.35,-0.85 1.34,-1.51 -0.01,-0.66 -0.46,-1.14 -1.37,-1.44 -0.66,-0.22 -1.37,-0.33 -2.14,-0.32l-25.6 0.23 6.13 -8.06 18.49 -0.16c2.77,-0.02 5.28,0.38 7.53,1.22 2.53,0.95 4.45,2.34 5.75,4.19 0.97,1.36 1.46,2.81 1.48,4.35 0.02,2.11 -0.84,4.03 -2.58,5.76zm160.48 -30.51l-5.92 8.05 -26.13 0.23 0.13 0.19 -35.71 0.32 5.76 -8.47 12.17 -0.11 -7.46 -10.55 -13.16 19.16 -11.91 0.11 19.04 -28.03c0.66,-1.01 1.54,-1.83 2.56,-2.49 1.06,-0.68 2.25,-1.17 3.52,-1.18 1.28,-0.01 2.47,0.44 3.54,1.12 1.01,0.64 1.88,1.45 2.56,2.44l18.76 27.23 -0.27 -30.73 9.21 -0.08 0.2 23.01 23.09 -0.2zm-69.89 -22.39l-5.92 8.1 -8.92 0.08 0.2 22.97 -9.25 0.08 -0.2 -22.97 -12.27 0.11 5.88 -8.1 30.49 -0.27zm-37.22 0.33l-5.88 8.1 -21.07 0.19c-1.13,0.01 -1.69,0.43 -1.68,1.26 0.01,0.83 0.58,1.24 1.71,1.23l15.16 -0.13c3.61,-0.03 6.63,0.86 9.07,2.67 2.52,1.93 3.8,4.44 3.83,7.54 0.03,3.07 -1.22,5.56 -3.73,7.48 -2.35,1.83 -5.35,2.76 -8.98,2.79l-27.26 0.24 5.88 -8.05 21.32 -0.19c0.96,-0.01 1.83,-0.19 2.6,-0.54 0.99,-0.44 1.48,-1.03 1.47,-1.78 -0.01,-0.77 -0.51,-1.36 -1.5,-1.75 -0.75,-0.28 -1.62,-0.42 -2.61,-0.41l-15.16 0.13c-3.36,0.03 -6.18,-0.75 -8.45,-2.33 -2.44,-1.7 -3.67,-3.97 -3.7,-6.81 -0.03,-2.87 1.17,-5.17 3.57,-6.91 2.24,-1.63 5.05,-2.45 8.41,-2.48l27.02 -0.24zm-41.65 27.38c0.02,2.81 -1.19,4.23 -3.64,4.25 -1.76,0.02 -3.45,-0.66 -5.06,-2.02l-17.57 -15.03 0.15 17.03 -9.25 0.08 -0.24 -27.01c-0.01,-1.15 0.33,-2.1 1.03,-2.85 0.7,-0.75 1.69,-1.13 2.99,-1.14 1.68,-0.01 3.24,0.59 4.68,1.81l17.57 15.03 -0.15 -17.07 9.25 -0.08 0.24 27.01z"/>
  </g>
 </g>
</svg>
