<svg xmlns="http://www.w3.org/2000/svg" viewBox="0 0 1600 1100" role="img" aria-labelledby="title desc">
  <title id="title">Visual corporativo temporal de contacto</title>
  <desc id="desc">Composicion corporativa temporal para la pagina de contacto y formulario.</desc>
  <rect width="1600" height="1100" fill="#fbfbfc"/>
  <circle cx="260" cy="220" r="220" fill="#045cb4" opacity=".1"/>
  <circle cx="1330" cy="850" r="280" fill="#ff7700" opacity=".1"/>
  <rect x="120" y="120" width="1360" height="860" rx="48" fill="#ffffff" stroke="#1e293b" stroke-opacity=".08"/>
  <g transform="translate(220 240)">
    <rect width="470" height="540" rx="40" fill="#045cb4"/>
    <circle cx="235" cy="150" r="56" fill="#f9fafb"/>
    <rect x="92" y="260" width="286" height="18" rx="9" fill="#f9fafb"/>
    <rect x="92" y="310" width="240" height="14" rx="7" fill="#f9fafb" opacity=".72"/>
    <rect x="92" y="346" width="304" height="14" rx="7" fill="#f9fafb" opacity=".4"/>
    <rect x="92" y="430" width="170" height="44" rx="22" fill="#ff7700"/>
  </g>
  <g transform="translate(790 250)">
    <rect width="530" height="160" rx="30" fill="#ffffff" stroke="#045cb4" stroke-opacity=".12"/>
    <rect y="230" width="530" height="160" rx="30" fill="#1e293b"/>
    <rect y="460" width="530" height="160" rx="30" fill="#ffffff" stroke="#ff7700" stroke-opacity=".18"/>
    <path d="M58 82h230" stroke="#1e293b" stroke-width="16" stroke-linecap="round" opacity=".74"/>
    <path d="M58 132h300" stroke="#1e293b" stroke-width="10" stroke-linecap="round" opacity=".28"/>
  </g>
</svg>
